<?xml version="1.0" encoding="utf-8"?>
<!-- Generator: Adobe Illustrator 23.0.3, SVG Export Plug-In . SVG Version: 6.00 Build 0)  -->
<svg version="1.1" id="Layer_1" xmlns="http://www.w3.org/2000/svg" xmlns:xlink="http://www.w3.org/1999/xlink" x="0px" y="0px"
	 viewBox="0 0 1000 1000" style="enable-background:new 0 0 1000 1000;" xml:space="preserve">
<style type="text/css">
	.st0{fill:#4056A1;}
	.st1{fill:#ED1C24;}
	.st2{fill:#29ABE2;}
</style>
<g>
	<g>
		<path class="st0" d="M302,628.2c-1.5-2.5-5.6-4.8-10.3-4.8c-6.1,0-9,2.5-9,5.8c0,3.8,4.5,4.8,9.7,5.5c9,1.1,17.5,3.5,17.5,13.8
			c0,9.7-8.6,13.8-18.2,13.8c-8.9,0-15.7-2.7-18.9-10.7l6.8-3.5c1.9,4.8,6.9,6.9,12.2,6.9c5.1,0,10-1.8,10-6.5c0-4.1-4.3-5.8-10-6.4
			c-8.9-1.1-17-3.4-17-13.1c0-8.9,8.8-12.6,16.8-12.6c6.8,0,13.7,1.9,17,8.6L302,628.2z"/>
		<path class="st0" d="M334.8,625.2h-13.7v-7.4c12.5,0,23.1,0,35.7,0v7.4H343v35.9h-8.2V625.2z"/>
		<path class="st0" d="M411.8,639.7c-0.1,11.2-7,22.4-22.2,22.4s-22.3-11-22.3-22.4s7.3-22.9,22.3-22.9
			C404.5,616.9,411.9,628.4,411.8,639.7z M375.3,639.9c0.2,7.1,4,14.7,14.2,14.7c10.2,0,14.1-7.7,14.2-14.8
			c0.1-7.3-4-15.5-14.2-15.5C379.3,624.3,375.1,632.6,375.3,639.9z"/>
		<path class="st0" d="M463.4,655.7c-4.5,4.4-10.2,6.4-16.5,6.4c-16.1,0-22.9-11.1-23-22.4c-0.1-11.3,7.3-22.9,23-22.9
			c5.9,0,11.5,2.2,15.9,6.6l-5.5,5.3c-2.8-2.8-6.7-4.1-10.5-4.1c-10.5,0-15,7.8-14.9,15.1c0.1,7.2,4.2,14.7,14.9,14.7
			c3.8,0,8.1-1.5,10.9-4.4L463.4,655.7z"/>
		<path class="st0" d="M528.8,630.4c0,3.3-1.6,6.6-5.6,8.4c5.1,1.5,6.9,6.9,6.9,9.7c0,9.7-7.2,12.8-16.2,12.8c-6.9,0-13.7,0-20.6,0
			v-43.4c6.8,0,13.7,0,20.6,0C522.4,617.8,528.8,621.6,528.8,630.4z M501.3,635.2h12.5c5.1,0,6.8-2.2,6.8-4.6c0-2-1.6-5.3-6.8-5.3
			h-12.5V635.2z M501.3,653.5h12.5c3.3,0,8.1-1.1,8.1-5.2c0-3.9-4.8-5.9-8.1-5.9h-12.5V653.5z"/>
		<path class="st0" d="M551.4,617.8v35.8h22.3v7.6h-30.5v-43.4H551.4z"/>
		<path class="st0" d="M628.3,639.7c-0.1,11.2-7,22.4-22.2,22.4s-22.3-11-22.3-22.4s7.3-22.9,22.3-22.9
			C621,616.9,628.4,628.4,628.3,639.7z M591.8,639.9c0.2,7.1,4,14.7,14.2,14.7c10.2,0,14.1-7.7,14.2-14.8c0.1-7.3-4-15.5-14.2-15.5
			C595.8,624.3,591.6,632.6,591.8,639.9z"/>
		<path class="st0" d="M679.9,655.7c-4.5,4.4-10.2,6.4-16.5,6.4c-16.1,0-22.9-11.1-23-22.4c-0.1-11.3,7.3-22.9,23-22.9
			c5.9,0,11.5,2.2,15.9,6.6l-5.5,5.3c-2.8-2.8-6.7-4.1-10.5-4.1c-10.5,0-15,7.8-14.9,15.1c0.1,7.2,4.2,14.7,14.9,14.7
			c3.8,0,8.1-1.5,10.9-4.4L679.9,655.7z"/>
		<path class="st0" d="M719.4,628.2c-1.5-2.5-5.6-4.8-10.3-4.8c-6.1,0-9,2.5-9,5.8c0,3.8,4.5,4.8,9.7,5.5c9,1.1,17.5,3.5,17.5,13.8
			c0,9.7-8.6,13.8-18.2,13.8c-8.9,0-15.7-2.7-18.9-10.7l6.8-3.5c1.9,4.8,6.9,6.9,12.2,6.9c5.1,0,10-1.8,10-6.5c0-4.1-4.3-5.8-10-6.4
			c-8.9-1.1-17-3.4-17-13.1c0-8.9,8.8-12.6,16.8-12.6c6.8,0,13.7,1.9,17,8.6L719.4,628.2z"/>
	</g>
	<g>
		<g>
			<path class="st1" d="M427.7,530.5L427.7,530.5c0-10.1,8.2-18.3,18.3-18.3h165.7c2.7-5.2,5.1-10.6,7.1-16.2H381.1
				c6.7,19.1,18,36,32.3,49.6h137.9l0,0c0,10.1-8.2,18.3-18.3,18.3h-94.7c18.2,10.3,39.2,16.2,61.7,16.2
				c40.8,0,77.1-19.5,100.1-49.6H427.7z"/>
		</g>
		<g>
			<path class="st2" d="M500,337.7c-68,0-123.4,55.3-123.4,123.4c0,11.3,1.5,22.2,4.4,32.7h8.6c-3.1-10.4-4.7-21.3-4.7-32.7
				c0-63.5,51.6-115.1,115.1-115.1c36,0,68.2,16.6,89.4,42.6l5.8-6C572.5,355.2,538.2,337.7,500,337.7z"/>
			<path class="st2" d="M615.1,461.1c0,11.3-1.7,22.3-4.7,32.7h8.6c2.9-10.4,4.4-21.4,4.4-32.7c0-24.7-7.3-47.8-19.9-67.1l-5.9,6.2
				C608.7,417.8,615.1,438.7,615.1,461.1z"/>
		</g>
		<g>
			<polygon class="st1" points="442.8,450.6 440.1,447.9 493.2,394.3 542.9,444.7 619.2,364.6 622,367.3 542.9,450.3 493.2,399.8 
							"/>
			<circle class="st2" cx="440.1" cy="450.6" r="9.2"/>
			<circle class="st2" cx="493.3" cy="398.5" r="9.2"/>
			<circle class="st2" cx="542.1" cy="445.3" r="9.2"/>
			<circle class="st2" cx="620" cy="364.6" r="9.2"/>
		</g>
	</g>
</g>
</svg>
